<svg width="347" height="353" viewBox="0 0 347 353" fill="none" xmlns="http://www.w3.org/2000/svg">
<path d="M347.001 176.015C347.001 78.8045 268.196 0.000152588 170.986 0.000152588V176.015H347.001Z" fill="url(#paint0_linear)"/>
<g style="mix-blend-mode:overlay">
<path d="M347.001 176.015C347.001 78.8045 268.196 0.000152588 170.986 0.000152588V176.015H347.001Z" fill="url(#paint1_linear)"/>
</g>
<path d="M-0.000823975 176.015C-0.000823975 273.225 78.8035 352.029 176.014 352.029V176.015H-0.000823975Z" fill="url(#paint2_linear)" fill-opacity="0.5"/>
<g style="mix-blend-mode:overlay">
<path d="M-0.000823975 176.015C-0.000823975 273.225 78.8035 352.029 176.014 352.029V176.015H-0.000823975Z" fill="url(#paint3_linear)" fill-opacity="0.5"/>
</g>
<circle cx="173.5" cy="177.272" r="30.1739" fill="#C7CBED"/>
<circle cx="173.5" cy="255.221" r="30.1739" fill="#C7CBED"/>
<circle cx="253.965" cy="177.272" r="30.1739" fill="#C7CBED"/>
<circle cx="253.965" cy="255.221" r="30.1739" fill="#C7CBED"/>
<circle cx="93.0372" cy="177.272" r="30.1739" fill="#C7CBED"/>
<circle cx="93.0372" cy="255.221" r="30.1739" fill="#C7CBED"/>
<circle cx="93.0372" cy="96.8077" r="30.1739" fill="#C7CBED"/>
<circle cx="173.5" cy="96.8077" r="30.1739" fill="#C7CBED"/>
<circle cx="253.965" cy="96.8077" r="30.1739" fill="#C7CBED"/>
<path d="M114.373 118.144C120.032 112.485 123.211 104.81 123.211 96.8077C123.211 88.8051 120.032 81.1302 114.373 75.4715C108.715 69.8128 101.04 66.6338 93.0372 66.6338C85.0346 66.6338 77.3597 69.8128 71.701 75.4715L85.7829 89.5534C87.7069 87.6294 90.3163 86.5486 93.0372 86.5486C95.7581 86.5486 98.3675 87.6294 100.291 89.5534C102.215 91.4774 103.296 94.0868 103.296 96.8077C103.296 99.5286 102.215 102.138 100.291 104.062L114.373 118.144Z" fill="#3E4BB6"/>
<path d="M62.8633 255.221C62.8633 263.223 66.0423 270.898 71.701 276.557C77.3597 282.216 85.0346 285.395 93.0372 285.395C101.04 285.395 108.715 282.216 114.373 276.557C120.032 270.898 123.211 263.223 123.211 255.221L103.296 255.221C103.296 257.942 102.215 260.551 100.291 262.475C98.3675 264.399 95.7581 265.48 93.0372 265.48C90.3163 265.48 87.7069 264.399 85.7829 262.475C83.8589 260.551 82.7781 257.942 82.7781 255.221L62.8633 255.221Z" fill="#3E4BB6"/>
<path d="M93.0372 207.445C101.04 207.445 108.715 204.266 114.373 198.608C120.032 192.949 123.211 185.274 123.211 177.272C123.211 169.269 120.032 161.594 114.373 155.935C108.715 150.277 101.04 147.098 93.0372 147.098L93.0372 167.012C95.7581 167.012 98.3675 168.093 100.291 170.017C102.215 171.941 103.296 174.551 103.296 177.272C103.296 179.992 102.215 182.602 100.291 184.526C98.3675 186.45 95.7581 187.531 93.0372 187.531L93.0372 207.445Z" fill="#68B467"/>
<path d="M194.836 75.4715C192.034 72.6696 188.708 70.447 185.047 68.9306C181.386 67.4143 177.463 66.6338 173.5 66.6338C169.538 66.6338 165.614 67.4143 161.953 68.9306C158.292 70.447 154.966 72.6696 152.164 75.4715C149.362 78.2734 147.139 81.5998 145.623 85.2606C144.107 88.9215 143.326 92.8452 143.326 96.8077C143.326 100.77 144.107 104.694 145.623 108.355C147.139 112.016 149.362 115.342 152.164 118.144L166.246 104.062C165.293 103.109 164.537 101.978 164.022 100.734C163.506 99.489 163.241 98.1549 163.241 96.8077C163.241 95.4605 163.506 94.1264 164.022 92.8817C164.537 91.637 165.293 90.506 166.246 89.5534C167.198 88.6008 168.329 87.8451 169.574 87.3295C170.819 86.8139 172.153 86.5486 173.5 86.5486C174.847 86.5486 176.181 86.8139 177.426 87.3295C178.671 87.8451 179.802 88.6008 180.754 89.5534L194.836 75.4715Z" fill="#68B467"/>
<path d="M194.836 276.557C197.638 273.755 199.861 270.429 201.377 266.768C202.894 263.107 203.674 259.183 203.674 255.221C203.674 251.258 202.894 247.335 201.377 243.674C199.861 240.013 197.638 236.687 194.836 233.885C192.034 231.083 188.708 228.86 185.047 227.344C181.386 225.827 177.463 225.047 173.5 225.047C169.538 225.047 165.614 225.827 161.953 227.344C158.292 228.86 154.966 231.083 152.164 233.885L166.246 247.966C167.198 247.014 168.329 246.258 169.574 245.743C170.819 245.227 172.153 244.962 173.5 244.962C174.847 244.962 176.181 245.227 177.426 245.743C178.671 246.258 179.802 247.014 180.754 247.966C181.707 248.919 182.463 250.05 182.978 251.295C183.494 252.539 183.759 253.874 183.759 255.221C183.759 256.568 183.494 257.902 182.978 259.147C182.463 260.391 181.707 261.522 180.754 262.475L194.836 276.557Z" fill="#68B467"/>
<path d="M203.674 177.272C203.674 173.309 202.894 169.385 201.377 165.725C199.861 162.064 197.638 158.737 194.836 155.935C192.034 153.133 188.708 150.911 185.047 149.395C181.386 147.878 177.463 147.098 173.5 147.098C169.538 147.098 165.614 147.878 161.953 149.395C158.292 150.911 154.966 153.133 152.164 155.935C149.362 158.737 147.139 162.064 145.623 165.725C144.107 169.385 143.326 173.309 143.326 177.272L163.241 177.272C163.241 175.924 163.506 174.59 164.022 173.346C164.537 172.101 165.293 170.97 166.246 170.017C167.198 169.065 168.329 168.309 169.574 167.793C170.819 167.278 172.153 167.012 173.5 167.012C174.847 167.012 176.181 167.278 177.426 167.793C178.671 168.309 179.802 169.065 180.754 170.017C181.707 170.97 182.463 172.101 182.978 173.346C183.494 174.59 183.759 175.924 183.759 177.272H203.674Z" fill="#3E4BB6"/>
<path d="M232.629 75.4715C229.827 78.2734 227.604 81.5998 226.088 85.2606C224.571 88.9215 223.791 92.8452 223.791 96.8077C223.791 100.77 224.571 104.694 226.088 108.355C227.604 112.016 229.827 115.342 232.629 118.144C235.431 120.946 238.757 123.168 242.418 124.685C246.079 126.201 250.002 126.982 253.965 126.982C257.927 126.982 261.851 126.201 265.512 124.685C269.173 123.168 272.499 120.946 275.301 118.144L261.219 104.062C260.267 105.015 259.136 105.77 257.891 106.286C256.646 106.801 255.312 107.067 253.965 107.067C252.618 107.067 251.284 106.801 250.039 106.286C248.794 105.77 247.663 105.015 246.711 104.062C245.758 103.109 245.002 101.978 244.487 100.734C243.971 99.489 243.706 98.155 243.706 96.8077C243.706 95.4605 243.971 94.1264 244.487 92.8817C245.002 91.637 245.758 90.5061 246.711 89.5534L232.629 75.4715Z" fill="#68B467"/>
<path d="M253.965 225.047C250.002 225.047 246.079 225.827 242.418 227.344C238.757 228.86 235.431 231.083 232.629 233.885C229.827 236.687 227.604 240.013 226.088 243.674C224.571 247.335 223.791 251.258 223.791 255.221C223.791 259.183 224.571 263.107 226.088 266.768C227.604 270.429 229.827 273.755 232.629 276.557C235.431 279.359 238.757 281.581 242.418 283.098C246.079 284.614 250.002 285.395 253.965 285.395L253.965 265.48C252.618 265.48 251.284 265.215 250.039 264.699C248.794 264.183 247.663 263.428 246.711 262.475C245.758 261.522 245.002 260.391 244.487 259.147C243.971 257.902 243.706 256.568 243.706 255.221C243.706 253.874 243.971 252.539 244.487 251.295C245.002 250.05 245.758 248.919 246.711 247.966C247.663 247.014 248.794 246.258 250.039 245.743C251.284 245.227 252.618 244.962 253.965 244.962V225.047Z" fill="#68B467"/>
<path d="M275.301 155.935C272.499 153.133 269.173 150.911 265.512 149.395C261.851 147.878 257.927 147.098 253.965 147.098C250.002 147.098 246.079 147.878 242.418 149.395C238.757 150.911 235.431 153.133 232.629 155.935C229.827 158.737 227.604 162.064 226.088 165.725C224.571 169.385 223.791 173.309 223.791 177.272C223.791 181.234 224.571 185.158 226.088 188.819C227.604 192.479 229.827 195.806 232.629 198.608L246.711 184.526C245.758 183.573 245.002 182.442 244.487 181.198C243.971 179.953 243.706 178.619 243.706 177.272C243.706 175.924 243.971 174.59 244.487 173.346C245.002 172.101 245.758 170.97 246.711 170.017C247.663 169.065 248.794 168.309 250.039 167.793C251.284 167.278 252.618 167.012 253.965 167.012C255.312 167.012 256.646 167.278 257.891 167.793C259.136 168.309 260.267 169.065 261.219 170.017L275.301 155.935Z" fill="#3E4BB6"/>
<g style="mix-blend-mode:overlay">
<circle cx="173.5" cy="177.272" r="30.1739" fill="url(#paint4_linear)"/>
<circle cx="173.5" cy="255.221" r="30.1739" fill="url(#paint5_linear)"/>
<circle cx="253.965" cy="177.272" r="30.1739" fill="url(#paint6_linear)"/>
<circle cx="253.965" cy="255.221" r="30.1739" fill="url(#paint7_linear)"/>
<circle cx="93.0372" cy="177.272" r="30.1739" fill="url(#paint8_linear)"/>
<circle cx="93.0372" cy="255.221" r="30.1739" fill="url(#paint9_linear)"/>
<circle cx="93.0372" cy="96.8077" r="30.1739" fill="url(#paint10_linear)"/>
<circle cx="173.5" cy="96.8077" r="30.1739" fill="url(#paint11_linear)"/>
<circle cx="253.965" cy="96.8077" r="30.1739" fill="url(#paint12_linear)"/>
<path d="M114.373 118.144C120.032 112.485 123.211 104.81 123.211 96.8077C123.211 88.8051 120.032 81.1302 114.373 75.4715C108.715 69.8128 101.04 66.6338 93.0372 66.6338C85.0346 66.6338 77.3597 69.8128 71.701 75.4715L85.7829 89.5534C87.7069 87.6294 90.3163 86.5486 93.0372 86.5486C95.7581 86.5486 98.3675 87.6294 100.291 89.5534C102.215 91.4774 103.296 94.0868 103.296 96.8077C103.296 99.5286 102.215 102.138 100.291 104.062L114.373 118.144Z" fill="url(#paint13_linear)"/>
<path d="M62.8633 255.221C62.8633 263.223 66.0423 270.898 71.701 276.557C77.3597 282.216 85.0346 285.395 93.0372 285.395C101.04 285.395 108.715 282.216 114.373 276.557C120.032 270.898 123.211 263.223 123.211 255.221L103.296 255.221C103.296 257.942 102.215 260.551 100.291 262.475C98.3675 264.399 95.7581 265.48 93.0372 265.48C90.3163 265.48 87.7069 264.399 85.7829 262.475C83.8589 260.551 82.7781 257.942 82.7781 255.221L62.8633 255.221Z" fill="url(#paint14_linear)"/>
<path d="M93.0372 207.445C101.04 207.445 108.715 204.266 114.373 198.608C120.032 192.949 123.211 185.274 123.211 177.272C123.211 169.269 120.032 161.594 114.373 155.935C108.715 150.277 101.04 147.098 93.0372 147.098L93.0372 167.012C95.7581 167.012 98.3675 168.093 100.291 170.017C102.215 171.941 103.296 174.551 103.296 177.272C103.296 179.992 102.215 182.602 100.291 184.526C98.3675 186.45 95.7581 187.531 93.0372 187.531L93.0372 207.445Z" fill="url(#paint15_linear)"/>
<path d="M194.836 75.4715C192.034 72.6696 188.708 70.447 185.047 68.9306C181.386 67.4143 177.463 66.6338 173.5 66.6338C169.538 66.6338 165.614 67.4143 161.953 68.9306C158.292 70.447 154.966 72.6696 152.164 75.4715C149.362 78.2734 147.139 81.5998 145.623 85.2606C144.107 88.9215 143.326 92.8452 143.326 96.8077C143.326 100.77 144.107 104.694 145.623 108.355C147.139 112.016 149.362 115.342 152.164 118.144L166.246 104.062C165.293 103.109 164.537 101.978 164.022 100.734C163.506 99.489 163.241 98.1549 163.241 96.8077C163.241 95.4605 163.506 94.1264 164.022 92.8817C164.537 91.637 165.293 90.506 166.246 89.5534C167.198 88.6008 168.329 87.8451 169.574 87.3295C170.819 86.8139 172.153 86.5486 173.5 86.5486C174.847 86.5486 176.181 86.8139 177.426 87.3295C178.671 87.8451 179.802 88.6008 180.754 89.5534L194.836 75.4715Z" fill="url(#paint16_linear)"/>
<path d="M194.836 276.557C197.638 273.755 199.861 270.429 201.377 266.768C202.894 263.107 203.674 259.183 203.674 255.221C203.674 251.258 202.894 247.335 201.377 243.674C199.861 240.013 197.638 236.687 194.836 233.885C192.034 231.083 188.708 228.86 185.047 227.344C181.386 225.827 177.463 225.047 173.5 225.047C169.538 225.047 165.614 225.827 161.953 227.344C158.292 228.86 154.966 231.083 152.164 233.885L166.246 247.966C167.198 247.014 168.329 246.258 169.574 245.743C170.819 245.227 172.153 244.962 173.5 244.962C174.847 244.962 176.181 245.227 177.426 245.743C178.671 246.258 179.802 247.014 180.754 247.966C181.707 248.919 182.463 250.05 182.978 251.295C183.494 252.539 183.759 253.874 183.759 255.221C183.759 256.568 183.494 257.902 182.978 259.147C182.463 260.391 181.707 261.522 180.754 262.475L194.836 276.557Z" fill="url(#paint17_linear)"/>
<path d="M203.674 177.272C203.674 173.309 202.894 169.385 201.377 165.725C199.861 162.064 197.638 158.737 194.836 155.935C192.034 153.133 188.708 150.911 185.047 149.395C181.386 147.878 177.463 147.098 173.5 147.098C169.538 147.098 165.614 147.878 161.953 149.395C158.292 150.911 154.966 153.133 152.164 155.935C149.362 158.737 147.139 162.064 145.623 165.725C144.107 169.385 143.326 173.309 143.326 177.272L163.241 177.272C163.241 175.924 163.506 174.59 164.022 173.346C164.537 172.101 165.293 170.97 166.246 170.017C167.198 169.065 168.329 168.309 169.574 167.793C170.819 167.278 172.153 167.012 173.5 167.012C174.847 167.012 176.181 167.278 177.426 167.793C178.671 168.309 179.802 169.065 180.754 170.017C181.707 170.97 182.463 172.101 182.978 173.346C183.494 174.59 183.759 175.924 183.759 177.272H203.674Z" fill="url(#paint18_linear)"/>
<path d="M232.629 75.4715C229.827 78.2734 227.604 81.5998 226.088 85.2606C224.571 88.9215 223.791 92.8452 223.791 96.8077C223.791 100.77 224.571 104.694 226.088 108.355C227.604 112.016 229.827 115.342 232.629 118.144C235.431 120.946 238.757 123.168 242.418 124.685C246.079 126.201 250.002 126.982 253.965 126.982C257.927 126.982 261.851 126.201 265.512 124.685C269.173 123.168 272.499 120.946 275.301 118.144L261.219 104.062C260.267 105.015 259.136 105.77 257.891 106.286C256.646 106.801 255.312 107.067 253.965 107.067C252.618 107.067 251.284 106.801 250.039 106.286C248.794 105.77 247.663 105.015 246.711 104.062C245.758 103.109 245.002 101.978 244.487 100.734C243.971 99.489 243.706 98.155 243.706 96.8077C243.706 95.4605 243.971 94.1264 244.487 92.8817C245.002 91.637 245.758 90.5061 246.711 89.5534L232.629 75.4715Z" fill="url(#paint19_linear)"/>
<path d="M253.965 225.047C250.002 225.047 246.079 225.827 242.418 227.344C238.757 228.86 235.431 231.083 232.629 233.885C229.827 236.687 227.604 240.013 226.088 243.674C224.571 247.335 223.791 251.258 223.791 255.221C223.791 259.183 224.571 263.107 226.088 266.768C227.604 270.429 229.827 273.755 232.629 276.557C235.431 279.359 238.757 281.581 242.418 283.098C246.079 284.614 250.002 285.395 253.965 285.395L253.965 265.48C252.618 265.48 251.284 265.215 250.039 264.699C248.794 264.183 247.663 263.428 246.711 262.475C245.758 261.522 245.002 260.391 244.487 259.147C243.971 257.902 243.706 256.568 243.706 255.221C243.706 253.874 243.971 252.539 244.487 251.295C245.002 250.05 245.758 248.919 246.711 247.966C247.663 247.014 248.794 246.258 250.039 245.743C251.284 245.227 252.618 244.962 253.965 244.962V225.047Z" fill="url(#paint20_linear)"/>
<path d="M275.301 155.935C272.499 153.133 269.173 150.911 265.512 149.395C261.851 147.878 257.927 147.098 253.965 147.098C250.002 147.098 246.079 147.878 242.418 149.395C238.757 150.911 235.431 153.133 232.629 155.935C229.827 158.737 227.604 162.064 226.088 165.725C224.571 169.385 223.791 173.309 223.791 177.272C223.791 181.234 224.571 185.158 226.088 188.819C227.604 192.479 229.827 195.806 232.629 198.608L246.711 184.526C245.758 183.573 245.002 182.442 244.487 181.198C243.971 179.953 243.706 178.619 243.706 177.272C243.706 175.924 243.971 174.59 244.487 173.346C245.002 172.101 245.758 170.97 246.711 170.017C247.663 169.065 248.794 168.309 250.039 167.793C251.284 167.278 252.618 167.012 253.965 167.012C255.312 167.012 256.646 167.278 257.891 167.793C259.136 168.309 260.267 169.065 261.219 170.017L275.301 155.935Z" fill="url(#paint21_linear)"/>
</g>
<defs>
<linearGradient id="paint0_linear" x1="170.986" y1="88.0074" x2="347.001" y2="88.0074" gradientUnits="userSpaceOnUse">
<stop stop-color="#4FA74D"/>
<stop offset="1" stop-color="#343FA8"/>
</linearGradient>
<linearGradient id="paint1_linear" x1="170.986" y1="88.0074" x2="347.001" y2="88.0074" gradientUnits="userSpaceOnUse">
<stop stop-color="#4FA74D"/>
<stop offset="1" stop-color="#343FA8"/>
</linearGradient>
<linearGradient id="paint2_linear" x1="176.014" y1="264.022" x2="-0.000823975" y2="264.022" gradientUnits="userSpaceOnUse">
<stop stop-color="#81C181"/>
<stop offset="1" stop-color="#DDDD48"/>
</linearGradient>
<linearGradient id="paint3_linear" x1="176.014" y1="264.022" x2="-0.000823975" y2="264.022" gradientUnits="userSpaceOnUse">
<stop stop-color="#81C181"/>
<stop offset="1" stop-color="#DDDD48"/>
</linearGradient>
<linearGradient id="paint4_linear" x1="173.5" y1="147.098" x2="173.5" y2="207.445" gradientUnits="userSpaceOnUse">
<stop stop-color="#4FA74D"/>
<stop offset="1" stop-color="#343FA8"/>
</linearGradient>
<linearGradient id="paint5_linear" x1="173.5" y1="225.047" x2="173.5" y2="285.395" gradientUnits="userSpaceOnUse">
<stop stop-color="#4FA74D"/>
<stop offset="1" stop-color="#343FA8"/>
</linearGradient>
<linearGradient id="paint6_linear" x1="253.965" y1="147.098" x2="253.965" y2="207.445" gradientUnits="userSpaceOnUse">
<stop stop-color="#4FA74D"/>
<stop offset="1" stop-color="#343FA8"/>
</linearGradient>
<linearGradient id="paint7_linear" x1="253.965" y1="225.047" x2="253.965" y2="285.395" gradientUnits="userSpaceOnUse">
<stop stop-color="#4FA74D"/>
<stop offset="1" stop-color="#343FA8"/>
</linearGradient>
<linearGradient id="paint8_linear" x1="93.0372" y1="147.098" x2="93.0372" y2="207.445" gradientUnits="userSpaceOnUse">
<stop stop-color="#4FA74D"/>
<stop offset="1" stop-color="#343FA8"/>
</linearGradient>
<linearGradient id="paint9_linear" x1="93.0372" y1="225.047" x2="93.0372" y2="285.395" gradientUnits="userSpaceOnUse">
<stop stop-color="#4FA74D"/>
<stop offset="1" stop-color="#343FA8"/>
</linearGradient>
<linearGradient id="paint10_linear" x1="93.0372" y1="66.6338" x2="93.0372" y2="126.982" gradientUnits="userSpaceOnUse">
<stop stop-color="#4FA74D"/>
<stop offset="1" stop-color="#343FA8"/>
</linearGradient>
<linearGradient id="paint11_linear" x1="173.5" y1="66.6338" x2="173.5" y2="126.982" gradientUnits="userSpaceOnUse">
<stop stop-color="#4FA74D"/>
<stop offset="1" stop-color="#343FA8"/>
</linearGradient>
<linearGradient id="paint12_linear" x1="253.965" y1="66.6338" x2="253.965" y2="126.982" gradientUnits="userSpaceOnUse">
<stop stop-color="#4FA74D"/>
<stop offset="1" stop-color="#343FA8"/>
</linearGradient>
<linearGradient id="paint13_linear" x1="93.0372" y1="66.6338" x2="93.0372" y2="126.982" gradientUnits="userSpaceOnUse">
<stop stop-color="#4FA74D"/>
<stop offset="1" stop-color="#343FA8"/>
</linearGradient>
<linearGradient id="paint14_linear" x1="93.0372" y1="225.047" x2="93.0372" y2="285.395" gradientUnits="userSpaceOnUse">
<stop stop-color="#4FA74D"/>
<stop offset="1" stop-color="#343FA8"/>
</linearGradient>
<linearGradient id="paint15_linear" x1="93.0372" y1="147.098" x2="93.0372" y2="207.445" gradientUnits="userSpaceOnUse">
<stop stop-color="#4FA74D"/>
<stop offset="1" stop-color="#343FA8"/>
</linearGradient>
<linearGradient id="paint16_linear" x1="173.5" y1="66.6338" x2="173.5" y2="126.982" gradientUnits="userSpaceOnUse">
<stop stop-color="#4FA74D"/>
<stop offset="1" stop-color="#343FA8"/>
</linearGradient>
<linearGradient id="paint17_linear" x1="173.5" y1="225.047" x2="173.5" y2="285.395" gradientUnits="userSpaceOnUse">
<stop stop-color="#4FA74D"/>
<stop offset="1" stop-color="#343FA8"/>
</linearGradient>
<linearGradient id="paint18_linear" x1="173.5" y1="147.098" x2="173.5" y2="207.445" gradientUnits="userSpaceOnUse">
<stop stop-color="#4FA74D"/>
<stop offset="1" stop-color="#343FA8"/>
</linearGradient>
<linearGradient id="paint19_linear" x1="253.965" y1="66.6338" x2="253.965" y2="126.982" gradientUnits="userSpaceOnUse">
<stop stop-color="#4FA74D"/>
<stop offset="1" stop-color="#343FA8"/>
</linearGradient>
<linearGradient id="paint20_linear" x1="253.965" y1="225.047" x2="253.965" y2="285.395" gradientUnits="userSpaceOnUse">
<stop stop-color="#4FA74D"/>
<stop offset="1" stop-color="#343FA8"/>
</linearGradient>
<linearGradient id="paint21_linear" x1="253.965" y1="147.098" x2="253.965" y2="207.445" gradientUnits="userSpaceOnUse">
<stop stop-color="#4FA74D"/>
<stop offset="1" stop-color="#343FA8"/>
</linearGradient>
</defs>
</svg>
