<svg width="200" height="198" viewBox="0 0 200 198" fill="none" xmlns="http://www.w3.org/2000/svg">
<circle cx="105.286" cy="100.868" r="26.4311" transform="rotate(-90 105.286 100.868)" fill="url(#paint0_linear)"/>
<circle cx="105.286" cy="30.3853" r="26.4311" transform="rotate(-90 105.286 30.3853)" fill="#7F7F7F"/>
<g style="mix-blend-mode:overlay">
<circle cx="105.286" cy="30.3853" r="26.4311" transform="rotate(-90 105.286 30.3853)" fill="url(#paint1_linear)"/>
</g>
<circle cx="173.569" cy="30.3853" r="26.4311" transform="rotate(-90 173.569 30.3853)" fill="url(#paint2_linear)"/>
<circle cx="173.569" cy="171.348" r="26.4311" transform="rotate(-90 173.569 171.348)" fill="url(#paint3_linear)"/>
<circle cx="34.8037" cy="171.348" r="26.4311" transform="rotate(-90 34.8037 171.348)" fill="url(#paint4_linear)"/>
<path d="M47.8364 158.315C50.9606 155.191 50.9861 149.988 47.0726 147.937C43.3213 145.971 39.1168 144.917 34.8037 144.917C27.7937 144.917 21.0708 147.702 16.114 152.659C11.1573 157.615 8.37256 164.338 8.37256 171.348C8.37256 175.661 9.42681 179.866 11.3926 183.617C13.4434 187.531 18.6467 187.505 21.7709 184.381L23.4585 182.693C26.2148 179.937 25.8171 175.246 25.8171 171.348C25.8171 168.965 26.7639 166.679 28.4492 164.994C30.1345 163.308 32.4203 162.362 34.8037 162.362C38.7016 162.362 43.3925 162.759 46.1488 160.003L47.8364 158.315Z" fill="url(#paint5_linear)"/>
<path d="M173.569 189.779C173.569 194.198 177.231 197.895 181.448 196.578C185.49 195.315 189.209 193.088 192.259 190.038C197.216 185.081 200 178.358 200 171.348C200 164.338 197.216 157.615 192.259 152.659C189.209 149.609 185.491 147.381 181.448 146.119C177.231 144.801 173.569 148.499 173.569 152.917L173.569 155.304C173.569 159.202 177.167 162.237 179.924 164.994C181.609 166.679 182.556 168.965 182.556 171.348C182.556 173.732 181.609 176.017 179.924 177.703C177.167 180.459 173.569 183.495 173.569 187.393L173.569 189.779Z" fill="url(#paint6_linear)"/>
<path d="M123.717 171.348C128.135 171.348 131.832 167.687 130.515 163.47C129.253 159.427 127.025 155.708 123.975 152.659C119.018 147.702 112.296 144.917 105.286 144.917C98.2756 144.917 91.5528 147.702 86.596 152.659C83.5461 155.708 81.3185 159.427 80.056 163.47C78.7389 167.687 82.4362 171.348 86.8545 171.348L89.2411 171.348C93.1391 171.348 96.1749 167.75 98.9311 164.994C100.616 163.308 102.902 162.362 105.286 162.362C107.669 162.362 109.955 163.308 111.64 164.994C114.396 167.75 117.432 171.348 121.33 171.348L123.717 171.348Z" fill="url(#paint7_linear)"/>
<path d="M35.8455 49.6593C36.8394 53.9643 41.2385 56.7433 45.0515 54.5112C48.7065 52.3716 51.8286 49.3647 54.1142 45.7069C57.8289 39.7621 59.0299 32.5851 57.453 25.7548C55.8761 18.9245 51.6505 13.0004 45.7057 9.28571C42.0479 7.00006 37.9236 5.66607 33.7007 5.34529C29.2951 5.01063 26.5594 9.4368 27.5533 13.7418L28.0902 16.0673C28.967 19.8654 33.1559 22.0139 36.4615 24.0795C38.4828 25.3425 39.9195 27.3567 40.4556 29.679C40.9918 32.0013 40.5834 34.4415 39.3204 36.4627C37.2548 39.7684 34.4317 43.5357 35.3086 47.3338L35.8455 49.6593Z" fill="url(#paint8_linear)"/>
<path d="M21.7709 87.835C18.6467 84.7108 13.4437 84.6852 11.3927 88.5986C11.0251 89.3 10.6886 90.0188 10.3845 90.753C9.05622 93.9598 8.37256 97.3967 8.37256 100.868C8.37256 104.339 9.05622 107.776 10.3845 110.982C11.7128 114.189 13.6597 117.103 16.114 119.557C18.5684 122.012 21.4821 123.959 24.6889 125.287C27.8957 126.615 31.3327 127.299 34.8036 127.299C38.2746 127.299 41.7116 126.615 44.9184 125.287C45.6525 124.983 46.3713 124.646 47.0728 124.279C50.9862 122.228 50.9606 117.025 47.8364 113.9L43.6535 109.718C42.2753 108.339 40.0433 108.424 38.2427 109.17C37.1524 109.622 35.9838 109.854 34.8037 109.854C33.6235 109.854 32.4549 109.622 31.3646 109.17C30.2743 108.719 29.2837 108.057 28.4492 107.222C27.6147 106.388 26.9528 105.397 26.5011 104.307C26.0495 103.216 25.8171 102.048 25.8171 100.868C25.8171 99.6876 26.0495 98.519 26.5011 97.4287C27.247 95.6281 27.332 93.396 25.9538 92.0179L21.7709 87.835Z" fill="url(#paint9_linear)"/>
<path d="M186.602 87.8369C189.726 84.7127 189.752 79.5097 185.838 77.4588C185.137 77.0912 184.418 76.7546 183.684 76.4505C180.477 75.1223 177.04 74.4386 173.569 74.4386C170.098 74.4386 166.661 75.1222 163.455 76.4505C160.248 77.7788 157.334 79.7257 154.88 82.1801C152.425 84.6344 150.478 87.5482 149.15 90.7549C147.822 93.9617 147.138 97.3987 147.138 100.87C147.138 104.341 147.822 107.778 149.15 110.984C149.454 111.719 149.791 112.437 150.158 113.139C152.209 117.052 157.412 117.027 160.537 113.902L164.719 109.72C166.098 108.341 166.013 106.109 165.267 104.309C164.815 103.218 164.583 102.05 164.583 100.87C164.583 99.6896 164.815 98.521 165.267 97.4307C165.718 96.3404 166.38 95.3497 167.215 94.5152C168.049 93.6807 169.04 93.0188 170.13 92.5672C171.221 92.1156 172.389 91.8831 173.569 91.8831C174.749 91.8831 175.918 92.1156 177.008 92.5672C178.809 93.313 181.041 93.398 182.419 92.0198L186.602 87.8369Z" fill="url(#paint10_linear)"/>
<path d="M105.286 82.4366C105.286 78.0184 101.625 74.3212 97.4071 75.6381C96.6512 75.8742 95.905 76.1445 95.1708 76.4486C91.9641 77.7769 89.0503 79.7238 86.596 82.1781C84.1416 84.6325 82.1947 87.5462 80.8664 90.753C79.5382 93.9598 78.8545 97.3968 78.8545 100.868C78.8545 104.339 79.5382 107.776 80.8664 110.982C82.1947 114.189 84.1416 117.103 86.596 119.557C89.0503 122.012 91.9641 123.959 95.1708 125.287C95.905 125.591 96.6512 125.861 97.4071 126.097C101.625 127.414 105.286 123.717 105.286 119.299L105.286 113.383C105.286 111.434 103.647 109.916 101.847 109.17C100.756 108.719 99.7656 108.057 98.9311 107.222C98.0966 106.388 97.4347 105.397 96.9831 104.307C96.5315 103.216 96.299 102.048 96.299 100.868C96.299 99.6876 96.5315 98.519 96.9831 97.4287C97.4347 96.3384 98.0966 95.3477 98.9311 94.5133C99.7656 93.6788 100.756 93.0168 101.847 92.5652C103.647 91.8194 105.286 90.3012 105.286 88.3522L105.286 82.4366Z" fill="url(#paint11_linear)"/>
<path d="M155.138 30.3853C150.719 30.3853 147.022 34.0463 148.339 38.2638C148.575 39.0197 148.846 39.7659 149.15 40.5001C150.478 43.7068 152.425 46.6206 154.879 49.0749C157.334 51.5293 160.247 53.4762 163.454 54.8045C166.661 56.1327 170.098 56.8164 173.569 56.8164C177.04 56.8164 180.477 56.1327 183.684 54.8045C186.89 53.4762 189.804 51.5293 192.258 49.0749C194.713 46.6206 196.66 43.7068 197.988 40.5C198.292 39.7659 198.562 39.0197 198.798 38.2638C200.115 34.0463 196.418 30.3853 192 30.3853L186.084 30.3853C184.135 30.3853 182.617 32.0237 181.871 33.8243C181.42 34.9146 180.758 35.9053 179.923 36.7398C179.089 37.5743 178.098 38.2362 177.008 38.6878C175.918 39.1394 174.749 39.3719 173.569 39.3719C172.389 39.3719 171.22 39.1394 170.13 38.6878C169.039 38.2362 168.049 37.5743 167.214 36.7398C166.38 35.9053 165.718 34.9146 165.266 33.8243C164.52 32.0237 163.002 30.3853 161.053 30.3853L155.138 30.3853Z" fill="url(#paint12_linear)"/>
<circle cx="34.6118" cy="100.233" r="26.4311" transform="rotate(-90 34.6118 100.233)" fill="white"/>
<defs>
<linearGradient id="paint0_linear" x1="105.286" y1="74.4366" x2="105.286" y2="127.299" gradientUnits="userSpaceOnUse">
<stop stop-color="#4FA74D"/>
<stop offset="1" stop-color="#343FA8"/>
</linearGradient>
<linearGradient id="paint1_linear" x1="105.286" y1="3.95422" x2="105.286" y2="56.8164" gradientUnits="userSpaceOnUse">
<stop stop-color="#4FA74D"/>
<stop offset="1" stop-color="#343FA8"/>
</linearGradient>
<linearGradient id="paint2_linear" x1="173.569" y1="3.95422" x2="173.569" y2="56.8164" gradientUnits="userSpaceOnUse">
<stop stop-color="#4FA74D"/>
<stop offset="1" stop-color="#343FA8"/>
</linearGradient>
<linearGradient id="paint3_linear" x1="173.569" y1="144.917" x2="173.569" y2="197.779" gradientUnits="userSpaceOnUse">
<stop stop-color="#4FA74D"/>
<stop offset="1" stop-color="#343FA8"/>
</linearGradient>
<linearGradient id="paint4_linear" x1="34.8037" y1="144.917" x2="34.8037" y2="197.779" gradientUnits="userSpaceOnUse">
<stop stop-color="#4FA74D"/>
<stop offset="1" stop-color="#343FA8"/>
</linearGradient>
<linearGradient id="paint5_linear" x1="8.37256" y1="171.348" x2="61.2347" y2="171.348" gradientUnits="userSpaceOnUse">
<stop stop-color="#4FA74D"/>
<stop offset="1" stop-color="#343FA8"/>
</linearGradient>
<linearGradient id="paint6_linear" x1="147.138" y1="171.348" x2="200" y2="171.348" gradientUnits="userSpaceOnUse">
<stop stop-color="#4FA74D"/>
<stop offset="1" stop-color="#343FA8"/>
</linearGradient>
<linearGradient id="paint7_linear" x1="78.8545" y1="171.348" x2="131.717" y2="171.348" gradientUnits="userSpaceOnUse">
<stop stop-color="#4FA74D"/>
<stop offset="1" stop-color="#343FA8"/>
</linearGradient>
<linearGradient id="paint8_linear" x1="25.7537" y1="5.94688" x2="37.6451" y2="57.4542" gradientUnits="userSpaceOnUse">
<stop stop-color="#4FA74D"/>
<stop offset="1" stop-color="#343FA8"/>
</linearGradient>
<linearGradient id="paint9_linear" x1="8.37256" y1="100.868" x2="61.2347" y2="100.868" gradientUnits="userSpaceOnUse">
<stop stop-color="#4FA74D"/>
<stop offset="1" stop-color="#343FA8"/>
</linearGradient>
<linearGradient id="paint10_linear" x1="147.138" y1="100.87" x2="200" y2="100.87" gradientUnits="userSpaceOnUse">
<stop stop-color="#4FA74D"/>
<stop offset="1" stop-color="#343FA8"/>
</linearGradient>
<linearGradient id="paint11_linear" x1="78.8545" y1="100.868" x2="131.717" y2="100.868" gradientUnits="userSpaceOnUse">
<stop stop-color="#4FA74D"/>
<stop offset="1" stop-color="#343FA8"/>
</linearGradient>
<linearGradient id="paint12_linear" x1="147.138" y1="30.3853" x2="200" y2="30.3853" gradientUnits="userSpaceOnUse">
<stop stop-color="#4FA74D"/>
<stop offset="1" stop-color="#343FA8"/>
</linearGradient>
</defs>
</svg>
