<svg width="200" height="200" viewBox="0 0 200 200" fill="none" xmlns="http://www.w3.org/2000/svg">
<rect x="78" y="139" width="38" height="35" fill="url(#paint0_linear)" fill-opacity="0.5"/>
<rect x="59" y="172" width="76" height="28" rx="14" fill="url(#paint1_linear)"/>
<rect width="200" height="139" rx="40" fill="url(#paint2_linear)"/>
<path d="M24 91.5714C24 97.6051 25.8766 103.484 29.3609 108.365C32.8452 113.247 37.7583 116.88 43.396 118.744L49.121 100.81C47.2041 100.176 45.5337 98.941 44.349 97.2813C43.1644 95.6217 42.5263 93.6229 42.5263 91.5714L24 91.5714Z" fill="white"/>
<path d="M174.141 50.5712C174.141 44.5375 172.264 38.6587 168.78 33.7773C165.295 28.8959 160.382 25.2626 154.745 23.3981L149.02 41.3323C150.936 41.9663 152.607 43.2016 153.792 44.8612C154.976 46.5209 155.614 48.5197 155.614 50.5712L174.141 50.5712Z" fill="white"/>
<circle cx="99.5" cy="69.5" r="30.5" transform="rotate(-90 99.5 69.5)" fill="#3642AB"/>
<circle cx="92" cy="62" r="6" transform="rotate(-90 92 62)" fill="#DBD320"/>
<circle cx="107" cy="77" r="6" transform="rotate(-90 107 77)" fill="#429E53"/>
<defs>
<linearGradient id="paint0_linear" x1="97" y1="139" x2="97" y2="174" gradientUnits="userSpaceOnUse">
<stop stop-color="#81C181"/>
<stop offset="1" stop-color="#DDDD48"/>
</linearGradient>
<linearGradient id="paint1_linear" x1="97" y1="172" x2="97" y2="200" gradientUnits="userSpaceOnUse">
<stop stop-color="#4FA74D"/>
<stop offset="1" stop-color="#343FA8"/>
</linearGradient>
<linearGradient id="paint2_linear" x1="100" y1="0" x2="100" y2="139" gradientUnits="userSpaceOnUse">
<stop stop-color="#4FA74D"/>
<stop offset="1" stop-color="#343FA8"/>
</linearGradient>
</defs>
</svg>
