<svg width="200" height="203" viewBox="0 0 200 203" fill="none" xmlns="http://www.w3.org/2000/svg">
<path d="M5.98017 69.4559C12.543 49.1933 25.2565 31.5599 42.2987 19.083L80.7123 73.1498C74.918 77.392 70.5954 83.3874 68.364 90.2766L5.98017 69.4559Z" fill="#BDB53B"/>
<path d="M5.98017 69.4559C12.543 49.1933 25.2565 31.5599 42.2987 19.083L80.7123 73.1498C74.918 77.392 70.5954 83.3874 68.364 90.2766L5.98017 69.4559Z" fill="url(#paint0_linear)"/>
<g opacity="0.3">
<path d="M198.997 101.002C198.997 156.785 154.45 202.005 99.4987 202.005C44.5471 202.005 0 156.785 0 101.002C0 45.2204 44.5471 0 99.4987 0C154.45 0 198.997 45.2204 198.997 101.002ZM65.6692 101.002C65.6692 119.968 80.8152 135.343 99.4987 135.343C118.182 135.343 133.328 119.968 133.328 101.002C133.328 82.0366 118.182 66.6616 99.4987 66.6616C80.8152 66.6616 65.6692 82.0366 65.6692 101.002Z" fill="#BDB53B"/>
<path d="M198.997 101.002C198.997 156.785 154.45 202.005 99.4987 202.005C44.5471 202.005 0 156.785 0 101.002C0 45.2204 44.5471 0 99.4987 0C154.45 0 198.997 45.2204 198.997 101.002ZM65.6692 101.002C65.6692 119.968 80.8152 135.343 99.4987 135.343C118.182 135.343 133.328 119.968 133.328 101.002C133.328 82.0366 118.182 66.6616 99.4987 66.6616C80.8152 66.6616 65.6692 82.0366 65.6692 101.002Z" fill="url(#paint1_linear)"/>
</g>
<path d="M70.6768 101.253C70.6768 107.287 72.5534 113.166 76.0377 118.047C79.522 122.928 84.4351 126.562 90.0728 128.426C95.7105 130.291 101.783 130.291 107.421 128.426C113.059 126.562 117.972 122.928 121.456 118.047C124.94 113.166 126.817 107.287 126.817 101.253C126.817 95.2194 124.94 89.3406 121.456 84.4592C117.972 79.5778 113.059 75.9445 107.421 74.08C101.783 72.2155 95.7105 72.2155 90.0728 74.08L95.7977 92.0142C97.7145 91.3803 99.7793 91.3803 101.696 92.0142C103.613 92.6482 105.283 93.8835 106.468 95.5431C107.653 97.2028 108.291 99.2016 108.291 101.253C108.291 103.305 107.653 105.303 106.468 106.963C105.283 108.623 103.613 109.858 101.696 110.492C99.7793 111.126 97.7145 111.126 95.7977 110.492C93.8809 109.858 92.2104 108.623 91.0258 106.963C89.8411 105.303 89.2031 103.305 89.2031 101.253L70.6768 101.253Z" fill="white"/>
<path d="M99.2482 112.267C105.087 112.267 110.262 107.686 110.262 101.503C110.262 95.3207 105.087 90.7402 99.2482 90.7402C93.4093 90.7402 88.2344 95.3207 88.2344 101.503C88.2344 107.686 93.4093 112.267 99.2482 112.267Z" fill="#FF4040" stroke="#3642AB" stroke-width="11"/>
<circle cx="40.5815" cy="109.754" r="8" fill="url(#paint2_linear)"/>
<circle cx="24.5815" cy="77.7539" r="8" fill="url(#paint3_linear)"/>
<circle cx="56.5815" cy="63.7539" r="8" fill="url(#paint4_linear)"/>
<circle cx="53.5815" cy="27.7539" r="8" fill="url(#paint5_linear)"/>
<defs>
<linearGradient id="paint0_linear" x1="70.4201" y1="83.3858" x2="16.5723" y2="35.0248" gradientUnits="userSpaceOnUse">
<stop stop-color="#DDD41B"/>
<stop offset="1" stop-color="#6D79E3"/>
</linearGradient>
<linearGradient id="paint1_linear" x1="69.4177" y1="83.3858" x2="15.5698" y2="35.0248" gradientUnits="userSpaceOnUse">
<stop stop-color="#DDD41B"/>
<stop offset="1" stop-color="#6D79E3"/>
</linearGradient>
<linearGradient id="paint2_linear" x1="40.5815" y1="101.754" x2="40.5815" y2="117.754" gradientUnits="userSpaceOnUse">
<stop stop-color="#4FA74D"/>
<stop offset="1" stop-color="#343FA8"/>
</linearGradient>
<linearGradient id="paint3_linear" x1="24.5815" y1="69.7539" x2="24.5815" y2="85.7539" gradientUnits="userSpaceOnUse">
<stop stop-color="#4FA74D"/>
<stop offset="1" stop-color="#343FA8"/>
</linearGradient>
<linearGradient id="paint4_linear" x1="56.5815" y1="55.7539" x2="56.5815" y2="71.7539" gradientUnits="userSpaceOnUse">
<stop stop-color="#4FA74D"/>
<stop offset="1" stop-color="#343FA8"/>
</linearGradient>
<linearGradient id="paint5_linear" x1="53.5815" y1="19.7539" x2="53.5815" y2="35.7539" gradientUnits="userSpaceOnUse">
<stop stop-color="#4FA74D"/>
<stop offset="1" stop-color="#343FA8"/>
</linearGradient>
</defs>
</svg>
