<svg width="114" height="114" viewBox="0 0 114 114" fill="none" xmlns="http://www.w3.org/2000/svg">
<rect width="114" height="114" rx="8" fill="url(#paint0_linear)" fill-opacity="0.5"/>
<path d="M114 57C114 25.5198 88.4802 0 57 0V57H114Z" fill="url(#paint1_linear)" fill-opacity="0.5"/>
<path d="M0 57C0 88.4802 25.5198 114 57 114V57H0Z" fill="url(#paint2_linear)" fill-opacity="0.5"/>
<circle cx="78.794" cy="34.0889" r="7.26471" fill="white"/>
<path d="M56.9998 10.0586C48.1578 10.0586 39.5144 12.7133 32.1626 17.6871C24.8107 22.6608 19.0807 29.7302 15.697 38.0012C12.3133 46.2723 11.428 55.3735 13.153 64.154C14.8779 72.9345 19.1358 80.9999 25.388 87.3303C31.6402 93.6607 39.606 97.9717 48.2781 99.7183C56.9502 101.465 65.9391 100.568 74.108 97.1424C82.277 93.7165 89.2591 87.9148 94.1714 80.471C99.0837 73.0273 101.706 64.2758 101.706 55.3233H72.1998C72.1998 58.3672 71.3084 61.3427 69.6382 63.8735C67.968 66.4044 65.594 68.377 62.8166 69.5418C60.0392 70.7066 56.983 71.0114 54.0345 70.4176C51.0859 69.8238 48.3776 68.358 46.2518 66.2057C44.126 64.0533 42.6784 61.3111 42.0919 58.3257C41.5054 55.3404 41.8064 52.246 42.9569 49.4338C44.1073 46.6216 46.0555 44.2181 48.5552 42.527C51.0548 40.8359 53.9935 39.9333 56.9998 39.9333V10.0586Z" fill="url(#paint3_linear)"/>
<defs>
<linearGradient id="paint0_linear" x1="57" y1="0" x2="57" y2="114" gradientUnits="userSpaceOnUse">
<stop stop-color="#81C181"/>
<stop offset="1" stop-color="#DDDD48"/>
</linearGradient>
<linearGradient id="paint1_linear" x1="57" y1="28.5" x2="114" y2="28.5" gradientUnits="userSpaceOnUse">
<stop stop-color="#DDD41B"/>
<stop offset="1" stop-color="#ACC6EC"/>
</linearGradient>
<linearGradient id="paint2_linear" x1="57" y1="85.5" x2="0" y2="85.5" gradientUnits="userSpaceOnUse">
<stop stop-color="#DDD41B"/>
<stop offset="1" stop-color="#ACC6EC"/>
</linearGradient>
<linearGradient id="paint3_linear" x1="56.9998" y1="10.0586" x2="56.9998" y2="100.588" gradientUnits="userSpaceOnUse">
<stop stop-color="#4FA74D"/>
<stop offset="1" stop-color="#343FA8"/>
</linearGradient>
</defs>
</svg>
