<svg width="83" height="83" viewBox="0 0 83 83" fill="none" xmlns="http://www.w3.org/2000/svg">
<rect width="83" height="83" rx="8" fill="url(#paint0_linear)" fill-opacity="0.5"/>
<path d="M83 41.5C83 18.5802 64.4198 0 41.5 0V41.5H83Z" fill="url(#paint1_linear)" fill-opacity="0.5"/>
<path d="M0 41.5C0 64.4198 18.5802 83 41.5 83V41.5H0Z" fill="url(#paint2_linear)" fill-opacity="0.5"/>
<path d="M57.75 41.5C57.75 23.5507 43.1993 9 25.25 9L25.25 41.5H57.75Z" fill="url(#paint3_linear)"/>
<path d="M25.25 41.5C25.25 59.4493 39.8007 74 57.75 74V41.5H25.25Z" fill="url(#paint4_linear)"/>
<path d="M41.5 57.5181C59.4493 57.5181 74 42.9673 74 25.0181H41.5V57.5181Z" fill="url(#paint5_linear)"/>
<path d="M41.5 25.0181C23.5507 25.0181 9 39.5688 9 57.5181L41.5 57.5181L41.5 25.0181Z" fill="url(#paint6_linear)"/>
<g opacity="0.2">
<g style="mix-blend-mode:overlay">
<path d="M57.75 41.5C57.75 23.5507 43.1993 9 25.25 9L25.25 41.5H57.75Z" fill="url(#paint7_linear)"/>
</g>
<g style="mix-blend-mode:overlay">
<path d="M25.25 41.5C25.25 59.4493 39.8007 74 57.75 74V41.5H25.25Z" fill="url(#paint8_linear)"/>
</g>
<g style="mix-blend-mode:overlay">
<path d="M41.5 57.5181C59.4493 57.5181 74 42.9673 74 25.0181H41.5V57.5181Z" fill="url(#paint9_linear)"/>
</g>
<g style="mix-blend-mode:overlay">
<path d="M41.5 25.0181C23.5507 25.0181 9 39.5688 9 57.5181L41.5 57.5181L41.5 25.0181Z" fill="url(#paint10_linear)"/>
</g>
</g>
<circle cx="42" cy="42" r="6" fill="white"/>
<defs>
<linearGradient id="paint0_linear" x1="41.5" y1="0" x2="41.5" y2="83" gradientUnits="userSpaceOnUse">
<stop stop-color="#81C181"/>
<stop offset="1" stop-color="#DDDD48"/>
</linearGradient>
<linearGradient id="paint1_linear" x1="41.5" y1="20.75" x2="83" y2="20.75" gradientUnits="userSpaceOnUse">
<stop stop-color="#DDD41B"/>
<stop offset="1" stop-color="#ACC6EC"/>
</linearGradient>
<linearGradient id="paint2_linear" x1="41.5" y1="62.25" x2="0" y2="62.25" gradientUnits="userSpaceOnUse">
<stop stop-color="#DDD41B"/>
<stop offset="1" stop-color="#ACC6EC"/>
</linearGradient>
<linearGradient id="paint3_linear" x1="25.25" y1="25.25" x2="57.75" y2="25.25" gradientUnits="userSpaceOnUse">
<stop stop-color="#4FA74D"/>
<stop offset="1" stop-color="#343FA8"/>
</linearGradient>
<linearGradient id="paint4_linear" x1="57.75" y1="57.75" x2="25.25" y2="57.75" gradientUnits="userSpaceOnUse">
<stop stop-color="#4FA74D"/>
<stop offset="1" stop-color="#343FA8"/>
</linearGradient>
<linearGradient id="paint5_linear" x1="57.75" y1="25.0181" x2="57.75" y2="57.5181" gradientUnits="userSpaceOnUse">
<stop stop-color="#4FA74D"/>
<stop offset="1" stop-color="#343FA8"/>
</linearGradient>
<linearGradient id="paint6_linear" x1="25.25" y1="57.5181" x2="25.25" y2="25.0181" gradientUnits="userSpaceOnUse">
<stop stop-color="#4FA74D"/>
<stop offset="1" stop-color="#343FA8"/>
</linearGradient>
<linearGradient id="paint7_linear" x1="25.25" y1="25.25" x2="57.75" y2="25.25" gradientUnits="userSpaceOnUse">
<stop stop-color="#4FA74D"/>
<stop offset="1" stop-color="#343FA8"/>
</linearGradient>
<linearGradient id="paint8_linear" x1="57.75" y1="57.75" x2="25.25" y2="57.75" gradientUnits="userSpaceOnUse">
<stop stop-color="#4FA74D"/>
<stop offset="1" stop-color="#343FA8"/>
</linearGradient>
<linearGradient id="paint9_linear" x1="57.75" y1="25.0181" x2="57.75" y2="57.5181" gradientUnits="userSpaceOnUse">
<stop stop-color="#4FA74D"/>
<stop offset="1" stop-color="#343FA8"/>
</linearGradient>
<linearGradient id="paint10_linear" x1="25.25" y1="57.5181" x2="25.25" y2="25.0181" gradientUnits="userSpaceOnUse">
<stop stop-color="#4FA74D"/>
<stop offset="1" stop-color="#343FA8"/>
</linearGradient>
</defs>
</svg>
