<svg width="100" height="100" viewBox="0 0 100 100" fill="none" xmlns="http://www.w3.org/2000/svg">
<rect x="1.44922" y="2.89795" width="97.1014" height="97.1014" rx="8" fill="#2B349C"/>
<rect x="1.44922" y="2.89795" width="97.1014" height="97.1014" rx="8" fill="url(#paint0_linear)"/>
<circle cx="49.9991" cy="50.4898" r="11.7647" fill="url(#paint1_linear)"/>
<circle cx="49.9991" cy="80.8839" r="11.7647" fill="url(#paint2_linear)"/>
<circle cx="81.3721" cy="50.4898" r="11.7647" fill="#BDB53B"/>
<g style="mix-blend-mode:overlay">
<circle cx="81.3721" cy="50.4898" r="11.7647" fill="url(#paint3_linear)"/>
</g>
<circle cx="81.3721" cy="80.8839" r="11.7647" fill="url(#paint4_linear)"/>
<circle cx="18.628" cy="50.4898" r="11.7647" fill="url(#paint5_linear)"/>
<circle cx="18.628" cy="80.8839" r="11.7647" fill="url(#paint6_linear)"/>
<circle cx="18.628" cy="19.1182" r="11.7647" fill="url(#paint7_linear)"/>
<circle cx="49.9991" cy="19.1182" r="11.7647" fill="url(#paint8_linear)"/>
<circle cx="81.3721" cy="19.1182" r="11.7647" fill="url(#paint9_linear)"/>
<path d="M24.2017 24.6919C25.7178 26.208 28.2508 26.2182 29.1938 24.2925C29.9753 22.6965 30.3927 20.9289 30.3927 19.1182C30.3927 15.998 29.1532 13.0056 26.9469 10.7993C24.7406 8.59301 21.7482 7.35352 18.628 7.35352C16.8173 7.35352 15.0497 7.77092 13.4537 8.55245C11.5281 9.49544 11.5382 12.0284 13.0543 13.5446L13.5782 14.0684C14.805 15.2952 16.893 15.1182 18.628 15.1182V15.1182C19.6889 15.1182 20.7063 15.5396 21.4564 16.2898C22.2066 17.0399 22.628 18.0574 22.628 19.1182V19.1182C22.628 20.8532 22.451 22.9412 23.6778 24.168L24.2017 24.6919Z" fill="url(#paint10_linear)"/>
<path d="M10.7456 80.8843C8.60147 80.8843 6.80324 82.6683 7.4981 84.6967C8.07399 86.3778 9.02874 87.9229 10.3091 89.2032C12.5154 91.4095 15.5078 92.649 18.628 92.649C21.7482 92.649 24.7406 91.4095 26.9469 89.2032C28.2272 87.9229 29.182 86.3778 29.7579 84.6967C30.4527 82.6683 28.6545 80.8843 26.5103 80.8843L25.7695 80.8843C24.0345 80.8843 22.6833 82.4859 21.4564 83.7128V83.7128C20.7063 84.4629 19.6889 84.8843 18.628 84.8843C17.5671 84.8843 16.5497 84.4629 15.7996 83.7128V83.7128C14.5727 82.4859 13.2215 80.8843 11.4865 80.8843L10.7456 80.8843Z" fill="url(#paint11_linear)"/>
<path d="M18.628 58.3722C18.628 60.5163 20.4119 62.3146 22.4404 61.6197C24.1215 61.0438 25.6666 60.089 26.9469 58.8087C29.1532 56.6024 30.3927 53.61 30.3927 50.4898C30.3927 47.3696 29.1532 44.3772 26.9469 42.1709C25.6666 40.8906 24.1215 39.9358 22.4404 39.3599C20.4119 38.6651 18.628 40.4633 18.628 42.6075L18.628 43.3483C18.628 45.0833 20.2296 46.4345 21.4564 47.6614V47.6614C22.2066 48.4115 22.628 49.4289 22.628 50.4898C22.628 51.5507 22.2066 52.5681 21.4564 53.3182V53.3182C20.2296 54.5451 18.628 55.8963 18.628 57.6313L18.628 58.3722Z" fill="url(#paint12_linear)"/>
<path d="M55.5727 13.5446C57.0889 12.0284 57.0991 9.49554 55.1734 8.5525C54.9529 8.44449 54.7287 8.34327 54.5012 8.24905C53.0739 7.65782 51.544 7.35352 49.9991 7.35352C48.4541 7.35352 46.9243 7.65782 45.4969 8.24905C44.0696 8.84028 42.7726 9.70686 41.6802 10.7993C40.5877 11.8918 39.7211 13.1887 39.1299 14.6161C38.5387 16.0434 38.2344 17.5733 38.2344 19.1182C38.2344 20.6632 38.5387 22.193 39.1299 23.6204C39.2241 23.8478 39.3253 24.072 39.4334 24.2926C40.3764 26.2182 42.9093 26.208 44.4254 24.6919L46.0599 23.0574C46.6734 22.4439 46.6355 21.4504 46.3036 20.649V20.649C46.1025 20.1637 45.9991 19.6435 45.9991 19.1182C45.9991 18.5929 46.1025 18.0728 46.3036 17.5875C46.5046 17.1022 46.7992 16.6612 47.1707 16.2898C47.5421 15.9184 47.983 15.6237 48.4683 15.4227C48.9537 15.2217 49.4738 15.1182 49.9991 15.1182C50.5244 15.1182 51.0445 15.2217 51.5298 15.4227V15.4227C52.3313 15.7547 53.3248 15.7925 53.9382 15.1791L55.5727 13.5446Z" fill="url(#paint13_linear)"/>
<path d="M55.5727 86.458C57.0889 87.9742 59.6218 87.9843 60.5648 86.0587C60.6728 85.8381 60.774 85.614 60.8683 85.3865C61.4595 83.9591 61.7638 82.4293 61.7638 80.8843C61.7638 79.3394 61.4595 77.8095 60.8683 76.3822C60.277 74.9548 59.4104 73.6579 58.318 72.5654C57.2255 71.473 55.9286 70.6064 54.5012 70.0152C53.0739 69.4239 51.544 69.1196 49.9991 69.1196C48.4541 69.1196 46.9243 69.4239 45.4969 70.0152C45.2695 70.1094 45.0453 70.2106 44.8247 70.3186C42.8991 71.2616 42.9093 73.7945 44.4254 75.3107L46.0599 76.9452C46.6734 77.5586 47.6669 77.5208 48.4683 77.1888V77.1888C48.9536 76.9878 49.4738 76.8843 49.9991 76.8843C50.5244 76.8843 51.0445 76.9878 51.5298 77.1888C52.0151 77.3898 52.4561 77.6845 52.8275 78.0559C53.1989 78.4273 53.4936 78.8683 53.6946 79.3536C53.8956 79.8389 53.9991 80.359 53.9991 80.8843C53.9991 81.4096 53.8956 81.9298 53.6946 82.4151V82.4151C53.3626 83.2166 53.3248 84.21 53.9382 84.8235L55.5727 86.458Z" fill="url(#paint14_linear)"/>
<path d="M57.8814 50.4898C60.0256 50.4898 61.8238 48.706 61.129 46.6775C61.0494 46.4452 60.9625 46.2151 60.8683 45.9876C60.277 44.5603 59.4104 43.2634 58.318 42.1709C57.2255 41.0784 55.9286 40.2119 54.5012 39.6206C53.0739 39.0294 51.544 38.7251 49.9991 38.7251C48.4541 38.7251 46.9243 39.0294 45.4969 39.6206C44.0696 40.2119 42.7726 41.0784 41.6802 42.1709C40.5877 43.2634 39.7211 44.5603 39.1299 45.9876C39.0357 46.2151 38.9488 46.4452 38.8692 46.6775C38.1744 48.706 39.9726 50.4898 42.1167 50.4898L44.4283 50.4898C45.2958 50.4898 45.9716 49.7606 46.3036 48.9591V48.9591C46.5046 48.4738 46.7992 48.0328 47.1707 47.6614C47.5421 47.2899 47.983 46.9953 48.4683 46.7943C48.9536 46.5933 49.4738 46.4898 49.9991 46.4898C50.5244 46.4898 51.0445 46.5933 51.5298 46.7943C52.0151 46.9953 52.4561 47.2899 52.8275 47.6614C53.1989 48.0328 53.4936 48.4738 53.6946 48.9591V48.9591C54.0266 49.7606 54.7023 50.4898 55.5699 50.4898H57.8814Z" fill="url(#paint15_linear)"/>
<path d="M75.7985 13.5446C74.2823 12.0284 71.7494 12.0182 70.8064 13.9439C70.6984 14.1644 70.5972 14.3886 70.503 14.6161C69.9117 16.0434 69.6074 17.5733 69.6074 19.1182C69.6074 20.6632 69.9117 22.193 70.503 23.6204C71.0942 25.0477 71.9608 26.3447 73.0532 27.4371C74.1457 28.5296 75.4426 29.3962 76.87 29.9874C78.2973 30.5786 79.8272 30.8829 81.3721 30.8829C82.9171 30.8829 84.4469 30.5786 85.8743 29.9874C86.1018 29.8932 86.3259 29.792 86.5465 29.6839C88.4721 28.7409 88.4619 26.208 86.9458 24.6919L85.3113 23.0574C84.6978 22.4439 83.7043 22.4818 82.9029 22.8137V22.8137C82.4176 23.0148 81.8974 23.1182 81.3721 23.1182C80.8468 23.1182 80.3267 23.0148 79.8414 22.8137C79.3561 22.6127 78.9151 22.3181 78.5437 21.9466C78.1723 21.5752 77.8776 21.1343 77.6766 20.649C77.4756 20.1637 77.3721 19.6435 77.3721 19.1182C77.3721 18.5929 77.4756 18.0728 77.6766 17.5875V17.5875C78.0086 16.786 78.0464 15.7925 77.433 15.1791L75.7985 13.5446Z" fill="url(#paint16_linear)"/>
<path d="M81.3721 73.0015C81.3721 70.8573 79.5883 69.0591 77.5598 69.7539C77.3275 69.8335 77.0974 69.9205 76.87 70.0147C75.4426 70.6059 74.1457 71.4725 73.0532 72.5649C71.9608 73.6574 71.0942 74.9543 70.503 76.3817C69.9117 77.809 69.6074 79.3389 69.6074 80.8838C69.6074 82.4288 69.9117 83.9586 70.503 85.386C71.0942 86.8134 71.9608 88.1103 73.0532 89.2028C74.1457 90.2952 75.4426 91.1618 76.87 91.753C77.0974 91.8472 77.3275 91.9342 77.5598 92.0138C79.5883 92.7086 81.3721 90.9104 81.3721 88.7662L81.3721 86.4546C81.3721 85.5871 80.6429 84.9114 79.8414 84.5794V84.5794C79.3561 84.3783 78.9151 84.0837 78.5437 83.7123C78.1723 83.3408 77.8776 82.8999 77.6766 82.4146C77.4756 81.9293 77.3721 81.4091 77.3721 80.8838C77.3721 80.3586 77.4756 79.8384 77.6766 79.3531C77.8776 78.8678 78.1723 78.4269 78.5437 78.0554C78.9151 77.684 79.3561 77.3893 79.8414 77.1883V77.1883C80.6429 76.8563 81.3721 76.1806 81.3721 75.3131L81.3721 73.0015Z" fill="url(#paint17_linear)"/>
<defs>
<linearGradient id="paint0_linear" x1="49.9999" y1="2.89795" x2="49.9999" y2="99.9994" gradientUnits="userSpaceOnUse">
<stop stop-color="#2C359C"/>
<stop offset="1" stop-color="#3642AB"/>
</linearGradient>
<linearGradient id="paint1_linear" x1="49.9991" y1="38.7251" x2="49.9991" y2="62.2545" gradientUnits="userSpaceOnUse">
<stop stop-color="#4FA74D"/>
<stop offset="1" stop-color="#343FA8"/>
</linearGradient>
<linearGradient id="paint2_linear" x1="49.9991" y1="69.1191" x2="49.9991" y2="92.6486" gradientUnits="userSpaceOnUse">
<stop stop-color="#4FA74D"/>
<stop offset="1" stop-color="#343FA8"/>
</linearGradient>
<linearGradient id="paint3_linear" x1="81.3721" y1="38.7251" x2="81.3721" y2="62.2545" gradientUnits="userSpaceOnUse">
<stop stop-color="#4FA74D"/>
<stop offset="1" stop-color="#343FA8"/>
</linearGradient>
<linearGradient id="paint4_linear" x1="81.3721" y1="69.1191" x2="81.3721" y2="92.6486" gradientUnits="userSpaceOnUse">
<stop stop-color="#4FA74D"/>
<stop offset="1" stop-color="#343FA8"/>
</linearGradient>
<linearGradient id="paint5_linear" x1="18.628" y1="38.7251" x2="18.628" y2="62.2545" gradientUnits="userSpaceOnUse">
<stop stop-color="#4FA74D"/>
<stop offset="1" stop-color="#343FA8"/>
</linearGradient>
<linearGradient id="paint6_linear" x1="18.628" y1="69.1191" x2="18.628" y2="92.6486" gradientUnits="userSpaceOnUse">
<stop stop-color="#4FA74D"/>
<stop offset="1" stop-color="#343FA8"/>
</linearGradient>
<linearGradient id="paint7_linear" x1="18.628" y1="7.35352" x2="18.628" y2="30.8829" gradientUnits="userSpaceOnUse">
<stop stop-color="#4FA74D"/>
<stop offset="1" stop-color="#343FA8"/>
</linearGradient>
<linearGradient id="paint8_linear" x1="49.9991" y1="7.35352" x2="49.9991" y2="30.8829" gradientUnits="userSpaceOnUse">
<stop stop-color="#4FA74D"/>
<stop offset="1" stop-color="#343FA8"/>
</linearGradient>
<linearGradient id="paint9_linear" x1="81.3721" y1="7.35352" x2="81.3721" y2="30.8829" gradientUnits="userSpaceOnUse">
<stop stop-color="#4FA74D"/>
<stop offset="1" stop-color="#343FA8"/>
</linearGradient>
<linearGradient id="paint10_linear" x1="18.628" y1="7.35352" x2="18.628" y2="30.8829" gradientUnits="userSpaceOnUse">
<stop stop-color="#4FA74D"/>
<stop offset="1" stop-color="#343FA8"/>
</linearGradient>
<linearGradient id="paint11_linear" x1="18.628" y1="69.1196" x2="18.628" y2="92.649" gradientUnits="userSpaceOnUse">
<stop stop-color="#4FA74D"/>
<stop offset="1" stop-color="#343FA8"/>
</linearGradient>
<linearGradient id="paint12_linear" x1="18.628" y1="38.7251" x2="18.628" y2="62.2545" gradientUnits="userSpaceOnUse">
<stop stop-color="#4FA74D"/>
<stop offset="1" stop-color="#343FA8"/>
</linearGradient>
<linearGradient id="paint13_linear" x1="49.9991" y1="7.35352" x2="49.9991" y2="30.8829" gradientUnits="userSpaceOnUse">
<stop stop-color="#4FA74D"/>
<stop offset="1" stop-color="#343FA8"/>
</linearGradient>
<linearGradient id="paint14_linear" x1="49.9991" y1="69.1196" x2="49.9991" y2="92.649" gradientUnits="userSpaceOnUse">
<stop stop-color="#4FA74D"/>
<stop offset="1" stop-color="#343FA8"/>
</linearGradient>
<linearGradient id="paint15_linear" x1="49.9991" y1="38.7251" x2="49.9991" y2="62.2545" gradientUnits="userSpaceOnUse">
<stop stop-color="#4FA74D"/>
<stop offset="1" stop-color="#343FA8"/>
</linearGradient>
<linearGradient id="paint16_linear" x1="81.3721" y1="7.35352" x2="81.3721" y2="30.8829" gradientUnits="userSpaceOnUse">
<stop stop-color="#4FA74D"/>
<stop offset="1" stop-color="#343FA8"/>
</linearGradient>
<linearGradient id="paint17_linear" x1="81.3721" y1="69.1191" x2="81.3721" y2="92.6486" gradientUnits="userSpaceOnUse">
<stop stop-color="#4FA74D"/>
<stop offset="1" stop-color="#343FA8"/>
</linearGradient>
</defs>
</svg>
