<svg width="100" height="100" viewBox="0 0 100 100" fill="none" xmlns="http://www.w3.org/2000/svg">
<g clip-path="url(#clip0)">
<path d="M50 4.00026C22.3858 4.00026 0 26.7479 0 54.8086L100 54.8086C100 26.7479 77.6142 4.00026 50 4.00026Z" fill="#4FA74D"/>
<g style="mix-blend-mode:overlay">
<path d="M50 4.00026C22.3858 4.00026 0 26.7479 0 54.8086L100 54.8086C100 26.7479 77.6142 4.00026 50 4.00026Z" fill="url(#paint0_linear)"/>
</g>
<ellipse cx="49.2534" cy="84.3833" rx="10.4478" ry="10.6167" transform="rotate(-180 49.2534 84.3833)" fill="#DDD41B"/>
<path d="M49.2534 73.7661C43.4833 73.7661 38.8056 78.5194 38.8056 84.3828H59.7012C59.7012 78.5194 55.0235 73.7661 49.2534 73.7661Z" fill="white"/>
<ellipse cx="16.4175" cy="84.3833" rx="10.4478" ry="10.6167" transform="rotate(-180 16.4175 84.3833)" fill="white"/>
<ellipse cx="82.0893" cy="84.3833" rx="10.4478" ry="10.6167" transform="rotate(-180 82.0893 84.3833)" fill="white"/>
<path d="M38.8065 55.5659C38.8065 49.7025 43.4841 44.9492 49.2543 44.9492C55.0244 44.9492 59.702 49.7025 59.702 55.5659C59.702 61.4293 55.0244 66.1826 49.2543 66.1826C43.4841 66.1826 38.8065 61.4293 38.8065 55.5659Z" fill="#3642AB"/>
<path d="M5.9707 55.5659C5.9707 49.7025 10.6483 44.9492 16.4185 44.9492C22.1886 44.9492 26.8662 49.7025 26.8662 55.5659C26.8662 61.4293 22.1886 66.1826 16.4185 66.1826C10.6483 66.1826 5.9707 61.4293 5.9707 55.5659Z" fill="#3642AB"/>
<path d="M71.6423 55.5659C71.6423 49.7025 76.32 44.9492 82.0901 44.9492C87.8602 44.9492 92.5379 49.7025 92.5379 55.5659C92.5379 61.4293 87.8602 66.1826 82.0901 66.1826C76.32 66.1826 71.6423 61.4293 71.6423 55.5659Z" fill="#3642AB"/>
</g>
<defs>
<linearGradient id="paint0_linear" x1="50" y1="54.8086" x2="50" y2="4.00026" gradientUnits="userSpaceOnUse">
<stop stop-color="#4FA74D"/>
<stop offset="1" stop-color="#343FA8"/>
</linearGradient>
<clipPath id="clip0">
<rect width="100" height="100" fill="white"/>
</clipPath>
</defs>
</svg>
