<svg width="100" height="100" viewBox="0 0 100 100" fill="none" xmlns="http://www.w3.org/2000/svg">
<g clip-path="url(#clip0)">
<path d="M18.8398 55.7461C18.8398 62.4245 20.923 68.9315 24.7908 74.3345C28.6585 79.7374 34.1123 83.759 40.3705 85.8228C46.6286 87.8865 53.3699 87.8865 59.6281 85.8228C65.8862 83.759 71.34 79.7375 75.2078 74.3345C79.0755 68.9315 81.1587 62.4245 81.1587 55.7461C81.1587 49.0676 79.0755 42.5606 75.2078 37.1577C71.34 31.7547 65.8862 27.7331 59.6281 25.6694C53.3699 23.6056 46.6286 23.6056 40.3705 25.6694L46.7255 45.52C48.8533 44.8183 51.1453 44.8183 53.2731 45.52C55.4008 46.2217 57.2551 47.589 58.5702 49.426C59.8852 51.263 60.5935 53.4754 60.5935 55.7461C60.5935 58.0167 59.8852 60.2291 58.5702 62.0661C57.2551 63.9031 55.4008 65.2705 53.2731 65.9721C51.1453 66.6738 48.8533 66.6738 46.7255 65.9721C44.5977 65.2705 42.7434 63.9031 41.4284 62.0661C40.1133 60.2291 39.4051 58.0167 39.4051 55.7461L18.8398 55.7461Z" fill="white"/>
<path d="M40.3705 25.6694C33.4744 27.9435 27.5757 32.5873 23.6905 38.8008C19.8053 45.0144 18.1768 52.4086 19.0855 59.7097L39.4886 57.0937C39.1796 54.6113 39.7333 52.0973 41.0543 49.9847C42.3753 47.8721 44.3808 46.2932 46.7255 45.52L40.3705 25.6694Z" fill="#BDB53B"/>
<path d="M40.3705 25.6694C33.4744 27.9435 27.5757 32.5873 23.6905 38.8008C19.8053 45.0144 18.1768 52.4086 19.0855 59.7097L39.4886 57.0937C39.1796 54.6113 39.7333 52.0973 41.0543 49.9847C42.3753 47.8721 44.3808 46.2932 46.7255 45.52L40.3705 25.6694Z" fill="url(#paint0_linear)"/>
<path d="M79.3893 96.8009C87.9316 90.5018 94.2899 81.6198 97.5528 71.4277C100.816 61.2357 100.816 50.2569 97.5528 40.0648C94.2899 29.8728 87.9316 20.9907 79.3893 14.6917C70.8469 8.39264 60.559 5 50 5C39.441 5 29.1531 8.39264 20.6107 14.6917C12.0684 20.9907 5.71007 29.8728 2.44717 40.0648C-0.815726 50.2569 -0.815724 61.2357 2.44718 71.4277C5.71008 81.6198 12.0684 90.5018 20.6107 96.8009L27.3703 87.3583C20.7926 82.5081 15.8968 75.6689 13.3843 67.821C10.8719 59.9731 10.8719 51.5194 13.3843 43.6716C15.8968 35.8237 20.7926 28.9845 27.3703 24.1342C33.9479 19.284 41.8696 16.6716 50 16.6716C58.1304 16.6716 66.0521 19.284 72.6297 24.1342C79.2074 28.9845 84.1032 35.8237 86.6157 43.6715C89.1281 51.5194 89.1281 59.9731 86.6157 67.821C84.1032 75.6689 79.2074 82.5081 72.6297 87.3583L79.3893 96.8009Z" fill="url(#paint1_linear)"/>
<circle cx="50.3809" cy="55.874" r="6" fill="#FF4040"/>
</g>
<defs>
<linearGradient id="paint0_linear" x1="40.579" y1="50.2302" x2="4.6683" y2="57.3782" gradientUnits="userSpaceOnUse">
<stop stop-color="#DDD41B"/>
<stop offset="1" stop-color="#BDB53B"/>
</linearGradient>
<linearGradient id="paint1_linear" x1="50" y1="5" x2="50" y2="106.493" gradientUnits="userSpaceOnUse">
<stop stop-color="#4FA74D"/>
<stop offset="1" stop-color="#343FA8"/>
</linearGradient>
<clipPath id="clip0">
<rect width="100" height="100" fill="white"/>
</clipPath>
</defs>
</svg>
