<svg width="221" height="55" viewBox="0 0 221 55" fill="none" xmlns="http://www.w3.org/2000/svg">
<path d="M129.699 54.2929C128.786 54.4537 127.861 54.5378 126.935 54.5442C123.993 54.5442 121.835 53.9769 120.462 52.8422C119.088 51.7075 118.176 49.8088 117.726 47.146C117.279 44.4806 117.056 40.3944 117.056 34.8873C117.056 29.4513 117.288 25.3842 117.752 22.6858C118.217 19.9875 119.139 18.0697 120.519 16.9325C121.896 15.7978 124.036 15.2305 126.94 15.2305C127.922 15.2287 128.902 15.3032 129.872 15.4532C130.82 15.6017 131.537 15.8067 132.022 16.0682V21.7073C130.751 21.4654 129.462 21.3349 128.168 21.317C126.715 21.317 125.7 21.5867 125.122 22.1261C124.545 22.6655 124.172 23.8078 124.005 25.553C123.837 27.3045 123.753 30.414 123.753 34.8816C123.753 39.3492 123.837 42.4588 124.005 44.2103C124.172 45.9593 124.545 47.1016 125.122 47.6372C125.7 48.1728 126.715 48.4425 128.168 48.4463C129.5 48.4548 130.829 48.324 132.134 48.056V53.6399C131.348 53.9453 130.532 54.1642 129.699 54.2929ZM149.104 54.1025L145.868 40.4198H142.677V54.1025H135.921V15.676H146.475C148.969 15.676 150.84 16.1418 152.088 17.0734C153.335 18.005 154.16 19.3262 154.563 21.0371C154.973 22.7506 155.178 25.0776 155.178 28.0184C155.178 30.9223 154.973 33.2399 154.563 34.9711C154.153 36.7023 153.281 38.0147 151.947 38.9082L156.025 54.0987L149.104 54.1025ZM147.458 34.0249C147.887 33.7089 148.166 33.1225 148.295 32.2658C148.425 31.4091 148.488 30.032 148.486 28.1345C148.486 26.2307 148.422 24.853 148.295 24.0014C148.168 23.1497 147.889 22.5633 147.458 22.2422C147.03 21.9262 146.332 21.7682 145.363 21.7682H142.677V34.5009H145.358C146.325 34.4983 147.023 34.3384 147.452 34.0211L147.458 34.0249ZM174.648 54.1025L173.365 45.6686H166.774L165.49 54.1025H158.839L165.15 15.6798H175.09L181.456 54.1025H174.648ZM170.231 22.6021H169.896L167.438 39.7459H172.689L170.231 22.6021ZM184.923 54.0987V15.676H199.5V21.7682H191.681V32.4295H198.605V38.5217H191.681V54.1025L184.923 54.0987ZM208.267 54.0987V21.8748H202.291V15.676H221V21.8748H215.024V54.0987H208.267Z" fill="white"/>
<path d="M11.2249 46.8393H10.7223L6.81374 15.6758H0L5.86374 54.0985H15.8035L21.6673 15.6758H15.023L11.2249 46.8393Z" fill="white"/>
<path d="M51.416 33.1569C50.556 32.5575 49.5734 32.1569 48.5394 31.9842L44.686 31.0837C44.0159 30.9352 43.5317 30.7308 43.2334 30.4706C42.9364 30.2098 42.7404 29.791 42.649 29.2141C42.534 28.2783 42.4869 27.3353 42.5081 26.3927C42.4919 25.5343 42.539 24.6759 42.649 23.8244C42.7129 23.2973 42.9144 22.7963 43.2334 22.3718C43.5317 22.0012 44.0064 21.7315 44.6575 21.5627C45.5663 21.3695 46.4949 21.2851 47.4237 21.3114C48.5394 21.3114 49.5909 21.3577 50.5783 21.4504C51.5658 21.543 52.2448 21.6268 52.6154 21.7017V16.1235C52.2448 15.975 51.3792 15.7891 50.0186 15.5657C48.5135 15.3306 46.9918 15.2185 45.4685 15.2306C43.2715 15.2306 41.475 15.5479 40.0788 16.1825C38.6827 16.8171 37.6121 17.9594 36.8671 19.6094C36.1233 21.267 35.7515 23.6036 35.7515 26.6192C35.7515 29.7453 36.0117 32.1276 36.532 33.7661C37.0524 35.4047 38.0208 36.3731 39.4372 36.6713L43.9055 37.6232C44.983 37.8479 45.7274 38.1182 46.1387 38.4343C46.5499 38.7503 46.8196 39.2434 46.9478 39.9135C47.0747 40.5837 47.1382 41.738 47.1382 43.3766C47.1382 45.4974 46.8773 46.8745 46.3557 47.5078C46.0022 47.895 45.5361 48.1614 45.023 48.2693C44.232 48.4193 43.4271 48.4832 42.6223 48.4597C41.131 48.4597 39.0273 48.3296 36.3112 48.0694V53.5905C37.5937 53.9264 38.9005 54.1612 40.2197 54.293C41.6293 54.4537 43.0465 54.5376 44.4652 54.5443C46.6977 54.5443 48.4746 54.227 49.7959 53.5924C51.1171 52.9578 52.1223 51.7476 52.8115 49.9618C53.5007 48.1748 53.8453 45.5875 53.8453 42.2C53.8453 39.4446 53.6403 37.3967 53.2303 36.0564C52.7836 34.6831 52.1788 33.7166 51.416 33.1569Z" fill="white"/>
<path d="M31.887 15.6758H25.1855V54.0966H31.887V15.6758Z" fill="white"/>
<path d="M106.412 15.6758V35.8371H106.077L99.4322 15.6758H93.064V54.0985H99.4874V32.4312H99.7102L106.804 54.0985H112.778V15.6758H106.412Z" fill="white"/>
<path d="M85.6716 16.9058C84.2932 15.7877 81.9845 15.2292 78.7455 15.2305C75.5065 15.2317 73.2079 15.7902 71.8499 16.9058C70.4893 18.0215 69.6326 19.8364 69.2798 22.3507C68.9269 24.865 68.7505 29.0452 68.7505 34.8911C68.7505 40.7295 68.9269 44.9083 69.2798 47.4277C69.6326 49.9471 70.4893 51.7621 71.8499 52.8726C73.2079 53.9908 75.5065 54.5492 78.7455 54.548C81.9845 54.5467 84.2932 53.9882 85.6716 52.8726C87.0486 51.757 87.9142 49.942 88.2684 47.4277C88.6225 44.9134 88.7989 40.7345 88.7976 34.8911C88.7976 29.0464 88.6212 24.8676 88.2684 22.3545C87.9155 19.8415 87.0499 18.0253 85.6716 16.9058ZM81.8449 44.492C81.718 46.2435 81.4483 47.342 81.0358 47.7875C80.6233 48.233 79.8618 48.4564 78.7512 48.4577C77.6337 48.4577 76.8817 48.2349 76.4895 47.7875C76.0973 47.3401 75.8289 46.234 75.6804 44.4654C75.5319 42.6967 75.4576 39.5041 75.4576 34.8873C75.4576 30.2706 75.5319 27.0817 75.6804 25.3092C75.8289 23.5368 76.0992 22.4345 76.4895 21.9871C76.8798 21.5397 77.6318 21.317 78.7512 21.317C79.8707 21.317 80.6322 21.5397 81.0358 21.9871C81.4394 22.4345 81.7154 23.533 81.8449 25.2826C81.9744 27.0322 82.0353 30.2325 82.0353 34.8873C82.0353 39.5421 81.9763 42.7424 81.8449 44.492Z" fill="white"/>
<path d="M57.6587 18.1375V54.0985H64.3601V18.1375C63.3008 18.5894 62.1611 18.8224 61.0094 18.8224C59.8577 18.8224 58.718 18.5894 57.6587 18.1375Z" fill="white"/>
<path d="M80.4515 5.06796C78.4809 3.97796 76.4227 3.05457 74.2984 2.30744C65.7117 -0.769145 56.3231 -0.769145 47.7364 2.30744C45.6094 3.05418 43.5487 3.97758 41.5757 5.06796C39.6206 6.18233 37.7606 7.45584 36.0146 8.87558L36.3573 9.31536C41.0502 8.15975 45.1453 7.15454 49.189 6.53389C51.4907 6.16455 53.7582 5.91325 55.9951 5.76095C55.1271 6.73017 54.5582 7.92987 54.3568 9.21528C54.1555 10.5007 54.3305 11.8169 54.8606 13.0051C55.3907 14.1933 56.2533 15.2027 57.3444 15.9115C58.4354 16.6203 59.7083 16.9983 61.0094 16.9998C62.3105 17.0012 63.5842 16.6262 64.6768 15.9198C65.7695 15.2135 66.6344 14.2061 67.1672 13.0191C67.7001 11.8321 67.878 10.5163 67.6796 9.23042C67.4812 7.94455 66.915 6.74356 66.0492 5.77237C68.2919 5.92658 70.546 6.17788 72.842 6.54532C74.8581 6.85754 76.899 7.26305 79.0141 7.7352C80.0745 7.96746 81.1426 8.234 82.2506 8.49672C82.7951 8.64014 83.3542 8.77848 83.9279 8.91175C84.499 9.0374 85.0701 9.20684 85.6755 9.31917L86.0182 8.87939C84.2706 7.45807 82.4087 6.18328 80.4515 5.06796Z" fill="white"/>
</svg>
